<svg xmlns="http://www.w3.org/2000/svg" version="1.1" xmlns:xlink="http://www.w3.org/1999/xlink" xmlns:svgjs="http://svgjs.dev/svgjs" width="27.4960632" height="27.4960632"><svg version="1.1" id="SvgjsSvg1005" xmlns="http://www.w3.org/2000/svg" xmlns:xlink="http://www.w3.org/1999/xlink" x="0px" y="0px" viewBox="0 0 27.4960632 27.4960632" enable-background="new 0 0 27.4960632 27.4960632" xml:space="preserve">
<g id="SvgjsG1004">
	<g>
		<path fill="#D94236" d="M13.7480364,1.3079923c6.8594427,0,12.4400015,5.5805554,12.4400015,12.4400005
			s-5.5805588,12.4399996-12.4400015,12.4399996S1.3080378,20.6074352,1.3080378,13.7479925
			S6.8885927,1.3079923,13.7480364,1.3079923 M13.7480364,0.3079924c-7.4227219,0-13.4399986,6.0173335-13.4399986,13.4400005
			c0,7.4227209,6.0172768,13.4399977,13.4399986,13.4399977s13.4400015-6.0172768,13.4400015-13.4399977
			C27.1880379,6.325326,21.1707573,0.3079924,13.7480364,0.3079924L13.7480364,0.3079924z"></path>
	</g>
</g>
<g id="SvgjsG1003">
	<path fill="#D94236" d="M8.2581682,5.8476019c0.0488281,0,0.2075195,0.012207,0.2685547,0.012207
		s0.390625-0.0732422,0.4394531-0.0732422c0.1342773,0,0.6713867,0.1953125,0.793457,0.1953125
		c0.1953125,0,1.0498047-0.1464844,1.2207031-0.1464844c0.3417969,0,0.378418,0,0.6958008-0.0854492
		c0.0488281-0.012207,0.3051758,0,0.3540039,0c0.1708984-0.012207,1.2207031-0.1831055,1.2939453-0.2075195
		c0.0244141-0.4150391,0.0244141-0.5615234-0.012207-0.9033203l0.012207-0.3662109
		c0-0.1831055-0.0732422-0.9765625-0.0976563-1.1474609c-0.0976563-0.0976563-0.7080078-0.3295898-0.8544922-0.378418
		l-0.0244141-0.0732422c0.1098633-0.0976563,0.3417969-0.2685547,0.4516602-0.3417969s0.2197266-0.0854492,0.3051758-0.0854492
		c0.1098633,0,0.1831055,0,0.7324219,0.2685547c0.2075195,0.1098633,0.378418,0.1464844,0.5981445,0.1953125
		c0.0615234,0.012207,0.2802734,0.2075195,0.3173828,0.2563477c0.0117188,0.0488281,0.0488281,0.1831055,0.0488281,0.2197266
		c0,0.0854492-0.2685547,0.3540039-0.28125,0.4272461c0,0.0610352-0.0117188,0.4150391-0.0234375,0.4638672
		c0,0.0488281-0.0371094,0.390625-0.0371094,0.4394531c0,0.0244141,0.0117188,0.0488281,0.0244141,0.0854492
		c-0.0361328,0.1464844-0.0615234,0.2441406-0.0615234,0.3540039c0,0.0488281,0.0253906,0.2685547,0.0253906,0.3051758
		c0,0.0732422,0,0.1220703,0.0361328,0.1586914c0.1591797,0,0.8789063-0.0732422,1.0253906-0.0854492l1.64746-0.0854492
		c0.0488281,0,0.3183594-0.1831055,0.390625-0.2197266c0.1464844,0.012207,0.171875,0.012207,0.3544922-0.0244141
		C18.035511,5.102973,18.0482063,5.11518,18.1458626,5.127387c0.1953125,0.1464844,0.2802734,0.1831055,0.6347656,0.3295898
		c0.5009766,0.2075195,0.5859375,0.6713867,0.5859375,0.78125c0,0.0854492-0.0488281,0.1708984-0.1220703,0.1708984
		c-0.0488281,0-0.2929688,0.0610352-0.3417969,0.0610352c-0.1835938,0.1953125-0.3535156,0.6347656-0.4150391,0.8544922
		c-0.0126953,0.0610352-0.1464844,0.3540039-0.1464844,0.390625c0,0.0244141,0.0849609,0.1708984,0.1103516,0.2197266
		c0.0234375,0.0488281,0.0605469,0.1220703,0.0605469,0.1953125c0,0.3662109-0.4023438,0.3662109-0.5253906,0.3662109
		c-0.21875,0-1.1591797-0.1098633-1.3544922-0.1220703c-0.2314453-0.012207-0.3291016,0-0.5859375,0.012207l-1.3310537,0.0610352
		c-0.390625,0.012207-0.390625,0.0732422-0.390625,0.2197266v0.2685547l-0.0605469,1.184082
		c0,0.0488281,0.0117188,0.2563477,0.0117188,0.2929688c0,0.0488281-0.0849609,0.378418-0.0849609,0.4516602
		c0,0.0854492,0.0244141,0.4760742,0.0244141,0.5615234c0,0.0732422-0.1098633,1.0498047-0.1342773,1.184082
		c-0.0244141,0.0854492-0.2319336,0.8422852-0.2685547,0.9521484c-0.0610352,0.0488281-0.1464844,0.1220703-0.1831055,0.1220703
		c-0.0610352,0-0.0976563-0.0366211-0.1342773-0.0732422c0-0.0976563,0-0.1220703-0.0488281-0.2319336
		c-0.0488281-0.1220703-0.0610352-0.1953125-0.0610352-0.4882813c0-0.0732422-0.0244141-0.390625-0.0244141-0.4638672
		c0-0.0488281,0.0244141-0.2685547,0.0244141-0.3295898c0.0244141-0.402832-0.0488281-1.0498047-0.0610352-1.4526367
		l-0.012207-0.5126953c0-0.0244141,0.0610352-0.3051758,0.0610352-0.3540039V9.0824652c0-0.0976563,0-0.390625-0.0854492-0.5126953
		c-0.0976563,0-0.8300781,0.0244141-0.9765625,0.0732422c-0.1342773,0.0366211-1.3671875,0.1831055-1.6113281,0.1831055
		c-0.0854492,0.1098633-0.1708984,0.2197266-0.4882813,0.2197266c-0.1831055,0-0.378418-0.4394531-0.5615234-0.8666992
		C9.6009417,8.0570745,9.5032854,7.471137,9.4666643,7.3612738c-0.1586914-0.5126953-0.1831055-0.5737305-0.5371094-0.78125
		C8.8929338,6.5556097,8.7220354,6.4091253,8.6854143,6.3847113C8.6365862,6.3602972,8.4046526,6.2504339,8.3680315,6.2260199
		C8.3069963,6.1771917,8.2703753,6.1405706,8.1971331,6.0673285C8.160512,6.0551214,8.1360979,6.0307074,8.1360979,6.0062933
		S8.160512,5.9574652,8.1971331,5.9208441L8.2581682,5.8476019z M13.250844,7.9227972l0.0610352-0.0366211V7.7274847
		l0.012207-1.2817383c0.0244141-0.2319336,0.0366211-0.3540039-0.0854492-0.3540039
		c-0.0488281,0-0.2807617,0.0366211-0.3173828,0.0366211h-0.1708984L11.6517229,6.262641
		c-0.0732422,0.012207-0.6225586,0.0244141-0.6713867,0.0366211c-0.1220703,0.012207-0.7080078,0.0976563-0.78125,0.1220703
		c-0.0488281,0.0244141-0.0854492,0.0488281-0.1342773,0.1098633c0.2319336,0.0976563,0.3662109,0.4272461,0.378418,0.4760742
		c0.0610352,0.1953125,0.1220703,1.1108398,0.1831055,1.2817383c0.1953125,0.0244141,2.1240234-0.3295898,2.4291992-0.3662109
		H13.250844z M16.4241829,7.7030706c0.1230469-0.012207,0.6347656,0.012207,0.7451172,0
		c0.2080078-0.2563477,0.3417969-1.184082,0.3662109-1.2695313c0.0244141-0.2441406,0.0371094-0.3051758,0.0859375-0.4394531
		c0.0117188-0.0488281,0.0117188-0.1220703-0.0126953-0.1586914l-1.0742188-0.012207
		c-0.2197266,0-1.3544912,0.1220703-1.42871,0.1220703c-0.0976563,0-0.5371094,0.0610352-0.6220703,0.0732422
		c-0.0488281,0.1342773-0.1337891,0.9887695-0.1337891,1.0498047c0,0.6591797,0,0.7202148,0.0361328,0.78125
		c0.1103516,0,0.5859375-0.0610352,0.6708984-0.0610352c0.0615234,0,0.2929688-0.0244141,0.3417969-0.0244141L16.4241829,7.7030706z
		"></path>
	<path fill="#D94236" d="M9.1248674,21.6610775c0.1708984-0.2441406,0.9033203-1.3427734,1.0620117-1.5625
		c0.2197266-0.2802734,0.7568359-1.2080078,0.7568359-1.6113281c0-0.0126953,0-0.0976563-0.0366211-0.1220703
		s-0.2441406-0.0732422-0.2929688-0.0732422c-0.012207,0-0.4882813,0.1464844-0.5249023,0.1591797
		c-0.1708984,0.0722656-0.5981445,0.1464844-0.6591797,0.1464844c-0.1464844,0-0.4272461-0.1591797-0.7324219-0.3183594
		c-0.0732422-0.0361328-0.390625-0.109375-0.4394531-0.1464844v-0.0976563
		c0.0244141-0.0117188,0.0976563-0.0234375,0.1220703-0.0234375c0.0732422,0,0.390625-0.0253906,0.4638672-0.0253906
		c0.5371094,0,0.5737305,0,1.1962891-0.1826172l0.9521484-0.2802734l0.0366211-0.0253906
		c0.012207-0.0976563,0.0244141-0.1953125,0.0244141-0.3535156c0-0.0859375-0.0244141-0.5253906-0.0244141-0.5742188
		c0-0.2441406,0-0.2802734-0.0488281-0.390625c0.012207-0.1953115,0.0244141-0.3417959,0.0244141-0.4394522
		c0-0.109375-0.0366211-0.5859375-0.1464844-0.6953125c-0.0244141-0.0244141-0.1586914-0.1708984-0.1831055-0.2070313
		c-0.0488281-0.0371094-0.2929688-0.1835938-0.3051758-0.2324219l-0.012207-0.0244141
		c0-0.0244141,0.0366211-0.0732422,0.0610352-0.0976563c0.1098633,0.0488281,0.6713867,0.0732422,0.78125,0.1220703
		c0.2197266,0.0854492,0.8666992,0.3300781,0.8666992,0.7207031c0,0.0849609,0,0.0849609-0.0976563,0.2675781
		c-0.0244141,0.0371094-0.012207,0.28125-0.0244141,0.3300781c-0.0366211,0.1582022-0.0732422,0.2929678-0.0732422,0.36621
		c0,0.1337891-0.0244141,0.7197266-0.012207,0.8427734c0.1098633,0.0361328,0.6103516,0.0605469,0.7080078,0.0849609
		c0.0610352,0.0244141,0.1342773,0.0615234,0.1586914,0.1103516c0.0244141,0.0605469,0.0488281,0.21875,0.0488281,0.2802734
		c0,0.1337891-0.402832,0.2080078-0.4516602,0.2080078c-0.3295898,0.0361328-0.3540039,0.0361328-0.5981445,0.1582031
		c0,0.109375,0,0.1708984,0.0244141,0.2197266c0.0610352,0.1103516,0.1708984,0.2685547,0.2563477,0.4033203
		c0,0.0605469-0.0854492,0.3417969-0.1220703,0.4267578c-0.012207,0.0615234-0.0732422,0.2802734-0.0732422,0.3662109
		c0.0976563,0.0488281,0.5004883,0.3300781,0.5981445,0.3789063c0.1708984,0.0976563,0.6469727,0.3417969,0.78125,0.4755859
		c0.2075195,0.2080078,0.402832,0.4755859,0.402832,0.5732422c0,0.0371094-0.0488281,0.2080078-0.0488281,0.2324219
		c0,0.0117188,0.012207,0.109375,0.012207,0.1220703c-0.0244141,0.1220703-0.0854492,0.2568359-0.2197266,0.2568359
		c-0.0488281,0-0.0610352,0-0.1831055-0.0371094c-0.0366211-0.0117188-0.1953125-0.0117188-0.2197266-0.0371094
		c-0.1098633-0.1210938-0.378418-0.4267578-0.5004883-0.5117188c-0.1464844-0.1230469-0.4150391-0.4033203-0.4882813-0.5253906
		c-0.1708984-0.2685547-0.1831055-0.2929688-0.3173828-0.4150391l-0.0366211,0.0732422
		c0.012207,0.0976563,0.012207,0.1220703-0.0244141,0.1953125c0.012207,0.0244141,0.0244141,0.109375,0.0244141,0.1347656
		c0,0.0849609-0.0488281,0.5976563-0.0488281,0.7070313c0,0.0371094,0.0244141,0.171875,0.0244141,0.1953125
		c0,0.1591797-0.0244141,0.8300781-0.0244141,0.9765625c0,0.0253906,0.0488281,0.3417969,0.0488281,0.4033203
		c0,0.1826172-0.0366211,0.9765625-0.0366211,1.1357422c0,0.0849609-0.0244141,0.3164063-0.0244141,0.4023438
		c-0.012207,0.0976563-0.1220703,0.6230469-0.1586914,0.7080078c-0.012207,0.0244141-0.0610352,0.0615234-0.0976563,0.0615234
		c-0.0732422,0-0.3540039-0.1464844-0.5859375-0.5986328c-0.0244141-0.0488281-0.0976563-0.3056641-0.1220703-0.3417969
		c-0.012207-0.0361328-0.0366211-0.1826172-0.0366211-0.2080078c0-0.0234375,0-0.0488281,0.0244141-0.0849609
		c0.1098633-0.0976563,0.1098633-0.0976563,0.1220703-0.2802734c0-0.0253906,0.0854492-0.2207031,0.0854492-0.2695313
		c0.0244141-0.1337891,0.1220703-0.7558594,0.1220703-0.8417969c0-0.1835938,0.0610352-1.0253906,0.0732422-1.1962891
		l0.012207-0.2197266c0.0244141-0.1347656,0.0366211-0.2441406,0.0366211-0.3417969
		c0-0.0732422-0.012207-0.0976563-0.0366211-0.1464844l-0.1098633,0.1582031
		c-0.0976563,0.2207031-0.5615234,0.7578125-0.8911133,1.0507813c-0.1098633,0.0976563-0.4394531,0.4511719-0.5737305,0.609375
		c-0.1220703,0.1464844-0.9643555,0.8671875-1.2084961,0.8671875c-0.0244141,0-0.0366211-0.0117188-0.1342773-0.0371094
		c-0.0244141-0.0117188-0.0976563,0-0.1220703,0.0126953l-0.0366211-0.0488281
		c0.012207-0.0244141,0.2563477-0.2568359,0.2807617-0.2685547c0.0244141-0.0244141,0.2075195-0.109375,0.2197266-0.1347656
		c0.3051758-0.3535156,0.3417969-0.390625,0.4638672-0.5488281L9.1248674,21.6610775z M12.7259417,17.8163509
		c0.1708984-0.0253906,0.9765625-0.0253906,1.1352539-0.0371094c0.1953125-0.0244141,1.074707-0.2324219,1.2573242-0.2441406
		c0.2080078-0.0244141,1.2939444-0.2441406,1.6845694-0.3173828c0.0371094-0.4882813-0.0488281-1.7578115-0.0605469-1.8916006
		c-0.0371094-0.4277344-0.0742188-0.4765625-0.3671875-0.7451172c-0.0234375-0.0244141-0.3164063-0.2319336-0.3535156-0.2319336
		c-0.2324209-0.0366211-0.2558584-0.0366211-0.281249-0.0976563c0.0742188-0.1586914,0.3789053-0.1586914,0.5742178-0.1586914
		c0.3662109,0,0.4150391,0.0244141,1.1474609,0.3417969c0.0244141,0.0244141,0.0849609,0.0366211,0.0976563,0.0488281
		c0.2314453,0.2319336,0.3662109,0.3544922,0.3662109,0.5732422c0,0.1230469-0.2324219,0.6474609-0.2324219,0.7578125
		c0,0.0605469-0.0605469,0.3535147-0.0605469,0.3652334c0,0.1103516-0.0244141,0.5625-0.0244141,0.6474609
		c0,0.0732422,0,0.1103516,0.0244141,0.2441406l0.0976563-0.0244141c0.0732422-0.1220703,0.1582031-0.2685547,0.5976563-0.2685547
		c0.0742188,0,0.8427734,0.0849609,1.0742188,0.3173828l0.0742188,0.2441406
		c-0.0253906,0.0488281-0.0371094,0.0859375-0.1464844,0.1953125c-0.0742188,0.0117188-0.3544922,0.1708984-0.4277344,0.1708984
		c-0.2070313,0-0.2324219,0-0.4511719,0.0488281c-0.0253906,0.0126953-0.0615234,0.0126953-0.0976563,0.0126953
		c-0.0859375,0-0.4882813-0.0742188-0.5742188-0.0742188c-0.0371094,0-0.109375,0.0126953-0.1220703,0.0126953
		c-0.0361328,0.1591797-0.0361328,0.1826172-0.0361328,0.2197266c0,0.2685547-0.0253906,1.4892578-0.0253906,1.7460938
		c0,0.0605469,0.0253906,0.3535156,0.0253906,0.4140625l-0.0253906,1.5625c0,0.0976563,0.0126953,0.4882813,0,0.5625
		l-0.0605469,1.1103516c0,0.0488281,0.0244141,0.2568359,0.0244141,0.3056641c0,0.6220703-0.2314453,1.1464844-0.3291016,1.1953125
		s-0.2568359,0.1347656-0.3671875,0.2324219c-0.0234375,0.0244141-0.1210938,0.1464844-0.1464844,0.1582031
		c-0.0361328,0.0126953-0.0605469,0.0126953-0.0849609,0.0126953c-0.0732422,0-0.0976563-0.0244141-0.3173828-0.1826172
		c-0.0371094-0.0615234-0.1347656-0.3671875-0.1835938-0.4033203c-0.1210938-0.0976563-0.3779287-0.3173828-0.5117178-0.4521484
		l-0.1103516-0.1826172c-0.2802734-0.2685547-0.3056641-0.2929688-0.4638672-0.3779297
		c-0.1464844-0.0859375-0.3789063-0.2324219-0.4277344-0.2695313c0.0253906,0,0.0742188-0.0234375,0.0976563-0.0234375
		c0.0488281,0,0.7451172,0.1337891,0.8300781,0.1464844c0.0742188,0,0.5859365,0.0849609,0.6230459,0.0849609
		c0.0859375,0,0.5,0.0126953,0.5859375,0.0126953c0.0605469-0.1591797,0.0859375-0.2441406,0.0859375-0.6347656
		c0-0.1953125,0.0117188-0.3671875,0.0117188-0.4394531c0-0.0488281,0.0244141-0.2568359,0.0244141-0.3056641
		c0-0.0126953-0.0244141-0.3056641-0.0244141-0.3173828c0-0.0371094,0.0244141-0.2441406,0.0244141-0.28125
		c0-0.0605469-0.0244141-0.3164063-0.0244141-0.3779297l0.0117188-1.7578125c0-0.4755859-0.0117188-1.1962891-0.0605469-1.6601563
		c-0.0244141-0.0126953-0.0605469-0.0244141-0.0859375-0.0244141c-0.0488281,0-1.671874,0.3535156-1.7451162,0.3662109
		c-0.0488281,0.0126953-0.6474609,0.1708984-0.7685547,0.2080078c-0.1103516-0.0253906-0.1103516-0.0253906-0.3178711-0.0253906
		c-0.0488281,0-0.5737305-0.2441406-0.6958008-0.2558594c-0.3173828-0.0371094-0.3295898-0.0371094-0.4882813-0.1835938
		L12.7259417,17.8163509z M14.6663713,19.4511166c0.0742188,0.0371094,0.4277344,0.1230469,0.5009766,0.1464844
		c0.0732422,0.0371094,0.1953125,0.1464844,0.3417969,0.28125c0.1220703,0.2324219,0.3662109,0.8544922,0.3662109,0.9160156
		c0,0.0605469,0.0488281,0.3164063,0.0488281,0.3779297c0,0.1464844-0.0976563,0.7080078-0.2685547,0.7080078
		c-0.1103516,0-0.1708984-0.0488281-0.4150391-0.2197266c-0.0605469-0.1464844-0.2324219-0.3173828-0.2929688-0.4638672
		c-0.0732422-0.1464844-0.3046875-0.8417969-0.3662109-0.9765625c-0.0615234-0.1220703-0.2685547-0.4882813-0.6347656-0.7324219
		c-0.0732422-0.0605469-0.0732422-0.0859375-0.0488281-0.1835938
		C14.1053362,19.3173275,14.4476213,19.3661556,14.6663713,19.4511166z"></path>
</g>
</svg><style>@media (prefers-color-scheme: light) { :root { filter: none; } }
@media (prefers-color-scheme: dark) { :root { filter: none; } }
</style></svg>